<svg aria-hidden="true" style="position:absolute;width:0;height:0;overflow:hidden" xmlns="http://www.w3.org/2000/svg">
  <defs>
    <symbol id="logo" viewBox="0 0 32 32">
      <path fill="#fcf1e0" style="fill:var(--color1, #fcf1e0)"
        d="M3.944 20.076 14.721 2.652l.64-.674 8.236 5.491.056 3.314 2.01 3.28-8.88 14.077-12.839-8.063z" />
      <path fill="none" stroke="#fd9222" style="stroke:var(--color2, #fd9222)" stroke-linejoin="round"
        stroke-linecap="round" stroke-width="2.667"
        d="M21.635 23.88 7.45 15.016m3.911-6.417 14.185 8.864M10.63 25.864l11.736-19.25m4.81 8.175c-3.04-1.899-4.234-3.384-2.278-6.592l-9.626-6.015-11.736 19.25 14.186 8.864 9.454-15.507z" />
    </symbol>

    <symbol id="instagram" viewBox="0 0 32 32">
      <path
        d="M8.507 1.391a7.864 7.864 0 0 0-4.863 2.347l-.002.002a7.754 7.754 0 0 0-2.254 4.812l-.002.03c-.065.672-.065 14.165 0 14.837a7.807 7.807 0 0 0 2.353 4.938l.002.002a7.754 7.754 0 0 0 4.812 2.254l.03.002c.672.065 14.165.065 14.837 0a7.77 7.77 0 0 0 4.841-2.256 7.793 7.793 0 0 0 2.352-4.91l.002-.03c.065-.672.065-14.165 0-14.837a7.811 7.811 0 0 0-2.352-4.938l-.002-.002a7.754 7.754 0 0 0-4.812-2.254l-.03-.002c-.619-.06-14.299-.056-14.912.005zm15.19 2.72a5.33 5.33 0 0 1 4.188 4.159l.006.034c.107.529.109.68.109 7.696 0 7.021-.003 7.167-.111 7.697a5.33 5.33 0 0 1-4.159 4.188l-.034.006c-.529.107-.68.109-7.696.109s-7.167-.003-7.696-.109a5.33 5.33 0 0 1-4.188-4.159l-.006-.034c-.108-.531-.111-.676-.111-7.697s.003-7.167.111-7.697a5.341 5.341 0 0 1 4.125-4.183l.035-.006c.485-.103.743-.105 7.695-.109 7.064-.004 7.201-.003 7.732.107zm-.686 3.248c-.688.103-.993.503-.997 1.308-.004.912.4 1.316 1.319 1.32.479.001.761-.089 1.005-.323.247-.235.321-.464.324-.997.003-.54-.097-.808-.391-1.056-.271-.227-.763-.325-1.26-.252zm-8.184 2.029c-2.503.48-4.48 2.291-5.195 4.759a5.94 5.94 0 0 0-.229 2.084l-.001-.018c.079 1.707.677 3.113 1.849 4.34 1.205 1.261 2.744 1.959 4.508 2.044 3.369.161 6.304-2.219 6.884-5.584.107-.613.077-1.835-.059-2.453-.197-.907-.641-1.899-1.149-2.573a8.69 8.69 0 0 0-1.405-1.412l-.018-.013c-.449-.341-1.511-.868-2.04-1.013-1.024-.281-2.205-.341-3.147-.16zm1.962 2.64c1.052.2 2.011.839 2.62 1.747.431.643.679 1.596.627 2.412-.064.997-.447 1.827-1.183 2.567-.413.416-.556.521-.988.729-.712.344-1.075.429-1.812.427-1.155-.003-1.988-.349-2.801-1.161-.811-.811-1.156-1.641-1.164-2.801-.004-.744.081-1.108.427-1.811a4.122 4.122 0 0 1 2.257-1.97l.029-.009a3.781 3.781 0 0 1 1.236-.204c.266 0 .527.027.778.078l-.025-.004z" />
    </symbol>
    <symbol id="twitter" viewBox="0 0 32 32">
      <path
        d="M21.12 2.699c-1.139.208-1.597.345-2.32.691-.881.423-1.711 1.045-2.281 1.713C15.403 6.41 14.8 7.852 14.69 9.478l-.037.545-.247-.029c-2.089-.245-3.967-.879-5.401-1.824-1.385-.913-3.087-2.579-4.421-4.329-.42-.552-.46-.592-.753-.748-.281-.149-.595-.135-.979.048-.427.201-.661.481-.839 1.005-.289.845-.584 2.247-.768 3.643-.131 1.001-.131 3.52 0 4.496.248 1.852.669 3.263 1.429 4.783 1.073 2.147 2.591 3.856 4.687 5.277l.533.361-.413.175c-1.621.708-3.509 1.12-5.494 1.12h-.042.002c-.499 0-.993.025-1.1.055a1.06 1.06 0 0 0-.681.551l-.003.006c-.112.22-.136.339-.136.693 0 .368.02.463.144.673.187.319.353.439 1.189.864 2.073 1.053 3.952 1.695 6.107 2.085 1.405.255 3.689.367 5.073.249 1.737-.148 3.2-.451 4.66-.963 4.72-1.656 8.313-4.949 10.36-9.495 1.125-2.501 1.692-5.183 1.745-8.279l.02-1.107.331-.404a11.734 11.734 0 0 0 2.187-4.178l.021-.083c.296-1.037.107-1.599-.637-1.884-.567-.217-.884-.155-1.635.327-.333.212-.833.509-1.112.659-.505.272-1.491.709-1.597.709-.031 0-.276-.167-.544-.371-.795-.603-1.821-1.063-2.927-1.309-.387-.085-1.988-.156-2.292-.101zm1.743 2.712c1.027.219 1.86.692 2.631 1.496.32.333.565.453.928.453.241 0 .819-.143 1.252-.308.119-.047-.067.2-.54.713-.545.592-.613.777-.529 1.455.155 1.251-.004 3.307-.396 5.127-.557 2.536-1.634 4.76-3.12 6.648l.027-.035c-.465.588-1.736 1.851-2.315 2.3-1.041.808-2.456 1.639-3.573 2.1-1.347.565-2.91.97-4.542 1.139l-.072.006c-.797.077-2.567.064-3.413-.025-.892-.095-2.08-.303-2.48-.435-.044-.015.196-.119.533-.229.912-.3 1.688-.636 2.427-1.033l-.08.039c.98-.499 1.844-1.036 2.064-1.283.297-.333.461-1.024.323-1.355-.155-.371-.339-.516-1.177-.925-3.961-1.94-6.103-4.66-6.828-8.673-.161-.895-.211-1.697-.179-2.959.028-1.085.061-1.507.172-2.144l.029-.171.464.483a26.71 26.71 0 0 0 1.975 1.802l.045.036c1.865 1.5 4.248 2.508 6.856 2.904.868.131 2.787.197 3.115.108.308-.077.561-.274.71-.537l.003-.006c.128-.229.133-.281.168-1.597.029-1.168.051-1.416.151-1.76a4.732 4.732 0 0 1 3.518-3.329l.031-.006c.432-.095 1.379-.096 1.823-.001z" />
    </symbol>

    <symbol id="arrow" viewBox="0 0 56 32">
      <path
        d="M30.603 21.134A3.675 3.675 0 0 1 28 22.219a3.67 3.67 0 0 1-2.603-1.085L8.604 4.304a3.675 3.675 0 0 0-2.603-1.085 3.67 3.67 0 0 0-2.603 6.255l16.83 16.83a10.998 10.998 0 0 0 15.546 0l16.83-16.83a3.669 3.669 0 0 0 .791-3.975A3.675 3.675 0 0 0 51.411 3.5a3.651 3.651 0 0 0-2.82 0 3.659 3.659 0 0 0-1.193.803l-16.793 16.83z" />
    </symbol>

    <symbol id="burger" viewBox="0 0 32 32">
      <path
        d="M3.32 6.91c-.382.191-.547.518-.547 1.09s.165.899.547 1.09l.274.137h24.812l.274-.137c.382-.191.547-.518.547-1.09s-.165-.899-.547-1.09l-.274-.137H3.594l-.274.137zm0 8c-.382.191-.547.518-.547 1.09s.165.899.547 1.09l.274.137h24.812l.274-.137c.382-.191.547-.518.547-1.09s-.165-.899-.547-1.09l-.274-.137H3.594l-.274.137zm0 8c-.382.191-.547.518-.547 1.09s.165.899.547 1.09l.274.137h24.812l.274-.137c.382-.191.547-.518.547-1.09s-.165-.899-.547-1.09l-.274-.137H3.594l-.274.137z" />
    </symbol>
    <symbol id="close" viewBox="0 0 32 32">
      <path
        d="M7.494 6.621a2.519 2.519 0 0 0-.472.359l.001-.001c-.527.505-.657 1.068-.369 1.567.09.154 1.537 1.657 3.715 3.857l3.568 3.604-3.6 3.61c-2.806 2.813-3.628 3.665-3.721 3.865-.243.516-.115 1.039.374 1.529.49.489 1.012.617 1.529.374.199-.095 1.053-.916 3.869-3.725l3.613-3.604 3.613 3.604c2.816 2.809 3.67 3.631 3.869 3.725.516.243 1.039.115 1.529-.374.489-.49.617-1.012.374-1.529-.093-.199-.915-1.052-3.721-3.865l-3.601-3.61 3.569-3.607c2.135-2.157 3.626-3.706 3.715-3.856.294-.506.148-1.088-.403-1.594-.489-.451-.979-.563-1.439-.329-.143.073-1.519 1.398-3.849 3.706-1.994 1.977-3.645 3.587-3.67 3.58a351.043 351.043 0 0 1-3.665-3.601l.007.007C10.031 8.038 8.633 6.691 8.492 6.62a1.168 1.168 0 0 0-1.005.004l.007-.003z" />
    </symbol>

    <symbol id="chocolate-bar" viewBox="0 0 32 32">
      <path style="fill:var(--color2, #000)"
        d="m13.822 2.413 7.527 7.536.08-.08a.856.856 0 0 1 1.184-.013l.873.873c.305.305.315.77.083 1.094l-.004.007-.143.192 6.16 6.16c.55.55.55 1.43 0 1.98l-9.43 9.43c-.55.55-1.43.55-1.98 0l-4.447-4.447a.853.853 0 0 1-.612.317.842.842 0 0 1-.644-.246l-2.6-2.6a.856.856 0 0 1-.013-1.184l.006-.007.077-.076-7.527-7.527c-.55-.55-.55-1.43 0-1.98l9.43-9.43c.55-.55 1.43-.55 1.98 0v.001zm6.582 8.48-1.756-1.755a.59.59 0 0 0-.85 0l-3.58 3.58a.621.621 0 0 0-.179.43.602.602 0 0 0 .179.43l1.749 1.749.61-.61-1.565-1.565 3.21-3.22 1.569 1.574.613-.613zm-5.076 5.072-1.754-1.754a.59.59 0 0 0-.85 0l-3.59 3.59c-.24.23-.24.61 0 .85l1.752 1.752.616-.616-1.57-1.564 3.22-3.21 1.564 1.563.612-.611zM8.822 8.193l3.58 3.58c.24.24.62.24.85-.01l3.58-3.58a.57.57 0 0 0 .18-.42h.01c0-.15-.06-.31-.18-.43l-3.58-3.58a.602.602 0 0 0-.86 0l-3.58 3.59c-.24.23-.24.61 0 .85zm-5.07 5.07 3.58 3.58c.24.24.62.24.85 0l3.58-3.58a.578.578 0 0 0 .18-.43h.01c0-.16-.06-.31-.18-.43l-3.58-3.58a.59.59 0 0 0-.85 0l-3.59 3.59c-.24.23-.24.61 0 .85zm6.933 8.754 2.362 2.363 9.636-13.04-.655-.655-11.343 11.332z" />
      <path fill="#fd9222" style="fill:var(--color3, #fd9222)"
        d="m13.822 2.413 7.527 7.536.08-.08a.856.856 0 0 1 1.184-.013l.873.873c.305.305.315.77.083 1.094l-.004.007-.143.192 6.16 6.16c.55.55.55 1.43 0 1.98l-9.43 9.43c-.55.55-1.43.55-1.98 0l-4.447-4.447a.853.853 0 0 1-.612.317.842.842 0 0 1-.644-.246l-2.6-2.6a.856.856 0 0 1-.013-1.184l.006-.007.077-.076-7.527-7.527c-.55-.55-.55-1.43 0-1.98l9.43-9.43c.55-.55 1.43-.55 1.98 0v.001zm6.582 8.48-1.756-1.755a.59.59 0 0 0-.85 0l-3.58 3.58a.621.621 0 0 0-.179.43.602.602 0 0 0 .179.43l1.749 1.749.61-.61-1.565-1.565 3.21-3.22 1.569 1.574.613-.613zm-5.076 5.072-1.754-1.754a.59.59 0 0 0-.85 0l-3.59 3.59c-.24.23-.24.61 0 .85l1.752 1.752.616-.616-1.57-1.564 3.22-3.21 1.564 1.563.612-.611zM8.822 8.193l3.58 3.58c.24.24.62.24.85-.01l3.58-3.58a.57.57 0 0 0 .18-.42h.01c0-.15-.06-.31-.18-.43l-3.58-3.58a.602.602 0 0 0-.86 0l-3.58 3.59c-.24.23-.24.61 0 .85zm-5.07 5.07 3.58 3.58c.24.24.62.24.85 0l3.58-3.58a.578.578 0 0 0 .18-.43h.01c0-.16-.06-.31-.18-.43l-3.58-3.58a.59.59 0 0 0-.85 0l-3.59 3.59c-.24.23-.24.61 0 .85zm6.933 8.754 2.362 2.363 9.636-13.04-.655-.655-11.343 11.332z" />
    </symbol>
    <symbol id="coin" viewBox="0 0 32 32">
      <path fill="#fd9222" style="fill:var(--color3, #fd9222)"
        d="M16 2.667c-7.333 0-13.333 6-13.333 13.333s6 13.333 13.333 13.333 13.333-6 13.333-13.333S23.333 2.667 16 2.667zm0 24c-5.867 0-10.667-4.8-10.667-10.667S10.133 5.333 16 5.333 26.667 10.133 26.667 16 21.867 26.667 16 26.667z" />
      <path fill="#fd9222" style="fill:var(--color3, #fd9222)"
        d="M17.733 14.667h-3.467c-.667 0-1.2-.533-1.2-1.2s.533-1.2 1.2-1.2h4.933c.8 0 1.333-.533 1.333-1.333s-.533-1.333-1.333-1.333h-1.867v-1.2c0-.8-.533-1.333-1.333-1.333s-1.333.533-1.333 1.333v1.2h-.4c-2.133 0-3.867 1.733-3.867 3.867s1.733 3.867 3.867 3.867h3.333c.667 0 1.2.533 1.2 1.2s-.533 1.2-1.2 1.2h-4.933c-.8 0-1.333.533-1.333 1.333s.533 1.333 1.333 1.333h2v1.2c0 .8.533 1.333 1.333 1.333s1.333-.533 1.333-1.333v-1.2h.4c2.133 0 3.867-1.733 3.867-3.867s-1.733-3.867-3.867-3.867z" />
    </symbol>
    <symbol id="spoon" viewBox="0 0 32 32">
      <path fill="#fd9222" style="fill:var(--color3, #fd9222)"
        d="M15.452 14.106a5.154 5.154 0 0 1-1.177-3.282c0-4.324 5.181-8.642 10.362-8.642a5.183 5.183 0 0 1 5.181 5.182c0 5.182-4.318 10.364-8.646 10.364a5.15 5.15 0 0 1-3.281-1.177L5.133 29.312a1.73 1.73 0 0 1-2.445-2.445l12.764-12.761z" />
    </symbol>

    <symbol id="mastercard" viewBox="0 0 47 32">
      <path fill="#fafafa" style="fill:var(--color1, #fafafa)" d="M4.267.533h38.4A3.733 3.733 0 0 1 46.4 4.266v23.467a3.733 3.733 0 0 1-3.733 3.733h-38.4a3.733 3.733 0 0 1-3.733-3.733V4.266A3.733 3.733 0 0 1 4.267.533z"/>
      <path fill="#ed0006" style="fill:var(--color2, #ed0006)" d="M23.467 23.29a9.69 9.69 0 0 1-6.331 2.345c-5.39 0-9.76-4.396-9.76-9.818s4.37-9.818 9.76-9.818a9.69 9.69 0 0 1 6.331 2.345 9.69 9.69 0 0 1 6.331-2.345c5.391 0 9.76 4.395 9.76 9.818s-4.37 9.818-9.76 9.818a9.69 9.69 0 0 1-6.331-2.345z"/>
      <path fill="#f9a000" style="fill:var(--color3, #f9a000)" d="M23.467 23.29c2.099-1.801 3.429-4.48 3.429-7.472s-1.331-5.672-3.429-7.472a9.69 9.69 0 0 1 6.331-2.345c5.391 0 9.76 4.395 9.76 9.818s-4.37 9.818-9.76 9.818a9.69 9.69 0 0 1-6.331-2.345z"/>
      <path fill="#ff5e00" style="fill:var(--color4, #ff5e00)" d="M23.467 23.29c2.099-1.801 3.429-4.48 3.429-7.472s-1.331-5.672-3.429-7.472c-2.099 1.801-3.429 4.48-3.429 7.472s1.331 5.672 3.429 7.472z"/>
      <path fill="none" stroke="#fafafa" style="stroke:var(--color1, #fafafa)" stroke-width="1.067" d="M4.267.533h38.4A3.733 3.733 0 0 1 46.4 4.266v23.467a3.733 3.733 0 0 1-3.733 3.733h-38.4a3.733 3.733 0 0 1-3.733-3.733V4.266A3.733 3.733 0 0 1 4.267.533z"/>
    </symbol>
    <symbol id="flag" viewBox="0 0 41 32">
      <path fill="gold" style="fill:var(--color5, #ffd700)" d="M40.745 1.355H.311v30.09h40.434V1.355z"/>
      <path fill="#0057b7" style="fill:var(--color6, #0057b7)" d="M.311 1.355h40.434V16.4H.311V1.355z"/>
    </symbol>

    <symbol id="play" viewBox="0 0 32 32">
      <path fill="#f5f4f4" style="fill:var(--color1, #f5f4f4)" d="M10.909 24V8.727l14.545 7.636-14.545 7.636z"/>
      <path fill="none" stroke="#fff" style="stroke:var(--color2, #fff)" stroke-width=".727" d="M31.636 16c0 8.636-7.001 15.636-15.636 15.636S.364 24.635.364 16C.364 7.364 7.365.364 16 .364S31.636 7.365 31.636 16z"/>
    </symbol>
  </defs>
</svg>