<svg width="32" height="20" viewBox="0 0 32 20" fill="none" xmlns="http://www.w3.org/2000/svg">
<path fill-rule="evenodd" clip-rule="evenodd" d="M16 16.8343C14.4022 18.2053 12.3295 19.033 10.0647 19.033C5.01106 19.033 0.914307 14.9122 0.914307 9.82898C0.914307 4.74576 5.01106 0.625 10.0647 0.625C12.3295 0.625 14.4022 1.45267 16 2.82371C17.5979 1.45267 19.6705 0.625 21.9354 0.625C26.989 0.625 31.0857 4.74576 31.0857 9.82898C31.0857 14.9122 26.989 19.033 21.9354 19.033C19.6705 19.033 17.5979 18.2053 16 16.8343Z" fill="#ED0006"/>
<path fill-rule="evenodd" clip-rule="evenodd" d="M16 16.8343C17.9674 15.1461 19.215 12.6341 19.215 9.82898C19.215 7.02389 17.9674 4.51189 16 2.82371C17.5978 1.45267 19.6705 0.625 21.9354 0.625C26.989 0.625 31.0857 4.74576 31.0857 9.82898C31.0857 14.9122 26.989 19.033 21.9354 19.033C19.6705 19.033 17.5978 18.2053 16 16.8343Z" fill="#F9A000"/>
<path fill-rule="evenodd" clip-rule="evenodd" d="M16.0001 16.8343C17.9675 15.1462 19.2151 12.6342 19.2151 9.82909C19.2151 7.02402 17.9675 4.51203 16.0001 2.82385C14.0327 4.51203 12.7852 7.02402 12.7852 9.82909C12.7852 12.6342 14.0327 15.1462 16.0001 16.8343Z" fill="#FF5E00"/>
</svg>
